<svg width="34" height="30" viewBox="0 0 34 30" fill="none" xmlns="http://www.w3.org/2000/svg">
<path d="M30.5325 3.4754C29.7506 2.69063 28.8222 2.06809 27.8004 1.64335C26.7786 1.21861 25.6834 1 24.5774 1C23.4714 1 22.3762 1.21861 21.3544 1.64335C20.3326 2.06809 19.4042 2.69063 18.6223 3.4754L16.9996 5.10333L15.3769 3.4754C13.7975 1.89096 11.6554 1.00082 9.42177 1.00082C7.18818 1.00082 5.04607 1.89096 3.46668 3.4754C1.88729 5.05985 1 7.20882 1 9.44957C1 11.6903 1.88729 13.8393 3.46668 15.4237L5.0894 17.0517L16.9996 29L28.9098 17.0517L30.5325 15.4237C31.3148 14.6393 31.9353 13.708 32.3587 12.6829C32.7821 11.6579 33 10.5592 33 9.44957C33 8.33999 32.7821 7.24129 32.3587 6.21622C31.9353 5.19115 31.3148 4.25981 30.5325 3.4754V3.4754Z" stroke="black" stroke-width="2" stroke-linecap="round" stroke-linejoin="round"/>
</svg>
